<?xml version="1.0"?>
<svg xmlns="http://www.w3.org/2000/svg" xmlns:xlink="http://www.w3.org/1999/xlink" xmlns:svgjs="http://svgjs.com/svgjs" version="1.1" width="512" height="512" x="0" y="0" viewBox="0 0 509.219 509.219" style="enable-background:new 0 0 512 512" xml:space="preserve" class=""><g><g xmlns="http://www.w3.org/2000/svg"><path d="m405 119.219c24.815 0 45-20.188 45-45 0-24.815-20.185-45-45-45-24.812 0-45 20.186-45 45 0 24.812 20.188 45 45 45zm0-60c8.272 0 15 6.729 15 15s-6.728 15-15 15-15-6.729-15-15 6.728-15 15-15z" fill="#ffffff" data-original="#000000" style="" class=""/><path d="m471.203 327.373c-112.111 70.156-260.55 19.391-307.407-103.154h63.774c-10.286 29.012 11.155 60 42.43 60h105c24.815 0 45-20.188 45-45 0-24.863-20.135-45-45-45h-17.57c10.287-29.014-11.154-60-42.43-60h-164.465c2.428-34.156 13.127-67.145 31.311-96.203l23.789-38.016-41.873 16.053c-97.053 37.202-163.762 130.753-163.762 238.166 0 70.044 28.811 136.782 79.39 184.857-2.805 7.834-4.311 16.135-4.388 24.447-.231 25.804 12.487 41.441 14.4 45.695 65.381-.003 69.188 0 165.598 0 107.298 0 200.924-66.607 238.166-163.762l16.053-41.873zm-141.203-148.154c0 8.271-6.728 15-15 15v30h60c8.282 0 15 6.716 15 15 0 8.271-6.728 15-15 15h-105c-8.281 0-15-6.717-15-15 0-8.271 6.728-15 15-15v-30c-1.827-.001 18.325.002-135.33-.02-8.061-.138-14.67-6.758-14.67-14.98 0-8.271 6.729-15 15-15h180c8.282 0 15 6.716 15 15zm-222.424 300c-3.961-11.19-3.509-24.014 2.4-35.434 15.488-29.974 56.237-32.901 76.031-6.557l9.006 11.987 11.992-9.001c5.674-4.26 12.445-6.312 19.585-5.957 21.924 1.113 35.691 25.412 24.392 44.961-10.149.001-133.249.001-143.406.001zm175.951-1.852c10.639-47.473-37.405-87.795-82.531-68.131-29.982-27.77-76.936-26.726-105.518 3.623-102.628-103.249-80.964-273.175 40.346-349.449-8.943 23.364-14.178 48.07-15.486 73.273-17.634 6.097-30.338 22.855-30.338 42.536 0 23.883 18.557 43.331 41.936 44.877 43.023 130.689 186.362 198.111 313.875 149.299-35.627 56.662-95.522 95.303-162.284 103.972z" fill="#ffffff" data-original="#000000" style="" class=""/></g></g></svg>
